<?xml version="1.0" encoding="utf-8"?>
<!DOCTYPE svg PUBLIC "-//W3C//DTD SVG 20010904//EN" "http://www.w3.org/TR/2001/REC-SVG-20010904/DTD/svg10.dtd">
<svg version="1.0" xmlns="http://www.w3.org/2000/svg" width="1922pt" height="820pt" viewBox="0 0 1922 820" style="" preserveAspectRatio="xMidYMid meet">
<g fill="#6756FFFF" stroke="#6756FFFF">
<path d="M 723.283 222.804 C 722.338 223.405 721.993 261.013 721.735 391.538 C 721.463 529.494 721.161 560.304 720.045 564.000 C 718.429 569.348 713.916 576.071 708.793 580.762 C 697.622 590.988 691.580 593.000 672.047 593.000 C 655.358 593.000 645.581 591.568 641.000 588.452 C 635.560 584.753 627.311 575.788 626.622 572.827 C 626.280 571.357 624.763 568.683 623.250 566.886 L 620.500 563.618 620.000 439.034 L 619.500 314.450 617.319 311.678 C 616.120 310.154 614.839 307.465 614.474 305.703 C 614.109 303.941 612.592 300.925 611.103 299.000 C 606.516 293.068 603.860 288.155 602.546 283.174 C 601.838 280.489 599.242 275.711 596.617 272.259 C 594.049 268.882 591.281 264.523 590.466 262.573 C 589.405 260.035 587.635 258.328 584.242 256.575 C 581.634 255.227 575.900 250.957 571.500 247.086 C 566.069 242.307 562.376 239.843 560.000 239.410 C 558.075 239.059 553.800 237.512 550.500 235.972 C 547.200 234.432 543.186 232.880 541.579 232.524 C 539.972 232.167 537.549 231.004 536.194 229.938 C 533.911 228.142 531.963 228.000 509.615 228.004 C 485.888 228.008 485.421 228.049 480.581 230.504 C 477.875 231.877 475.044 233.000 474.291 233.000 C 473.537 233.000 471.067 233.945 468.803 235.101 C 466.538 236.256 462.396 237.881 459.598 238.712 C 453.602 240.493 448.093 244.849 434.500 258.562 C 427.321 265.804 423.573 270.499 421.213 275.208 C 419.405 278.815 416.418 283.732 414.575 286.133 C 411.911 289.606 411.135 291.666 410.784 296.198 C 410.472 300.239 409.567 303.018 407.672 305.752 L 405.000 309.608 404.992 431.054 C 404.985 551.020 404.729 561.635 401.689 567.953 C 401.035 569.313 398.925 571.472 397.000 572.752 C 395.075 574.031 392.781 576.652 391.901 578.576 C 389.610 583.591 385.316 587.758 379.000 591.096 C 375.975 592.695 372.230 595.015 370.677 596.251 L 367.853 598.500 244.539 598.500 L 121.224 598.500 116.862 595.377 C 114.463 593.660 110.925 591.924 109.000 591.520 C 104.484 590.571 99.257 587.385 98.547 585.149 C 98.241 584.185 95.512 580.495 92.483 576.948 C 89.453 573.402 86.699 569.375 86.361 568.000 C 86.024 566.625 84.342 563.025 82.624 560.000 L 79.500 554.500 79.500 436.500 L 79.500 318.500 82.182 313.000 C 83.658 309.975 85.408 305.728 86.072 303.561 C 87.696 298.265 105.235 280.547 109.860 279.531 C 111.613 279.146 114.472 277.631 116.213 276.165 L 119.379 273.500 152.641 273.000 C 175.255 272.660 186.262 272.141 187.023 271.379 C 188.544 269.855 188.385 231.169 186.850 229.320 C 185.980 228.271 178.347 228.000 149.746 228.000 C 116.257 228.000 113.518 228.132 110.618 229.882 C 108.903 230.918 104.721 232.239 101.324 232.819 C 97.927 233.400 93.427 234.987 91.324 236.348 C 89.221 237.708 85.475 239.135 83.000 239.519 C 78.475 240.222 75.000 242.353 75.000 244.426 C 75.000 245.854 57.816 263.000 56.385 263.000 C 54.546 263.000 52.233 266.322 51.095 270.598 C 50.495 272.852 47.742 278.095 44.976 282.248 C 40.772 288.561 39.820 290.856 39.171 296.240 C 38.664 300.456 37.637 303.647 36.198 305.475 L 34.000 308.270 34.000 432.730 C 34.000 556.638 34.009 557.204 36.052 560.073 C 37.180 561.658 38.544 565.690 39.083 569.034 C 39.786 573.399 41.156 576.719 43.943 580.807 C 46.077 583.938 48.413 587.850 49.133 589.500 C 49.853 591.150 51.917 594.688 53.721 597.362 C 55.524 600.036 57.000 602.832 57.000 603.576 C 57.000 605.761 69.016 617.967 73.337 620.172 C 75.521 621.286 81.312 625.356 86.205 629.216 C 94.841 636.028 98.983 637.923 105.356 637.976 C 106.926 637.989 109.548 639.125 111.182 640.500 L 114.153 643.000 247.232 643.000 L 380.311 643.000 383.589 640.500 C 385.392 639.125 387.954 638.000 389.283 638.000 C 390.612 638.000 393.679 636.658 396.100 635.018 C 398.520 633.378 401.403 632.028 402.507 632.018 C 403.611 632.008 406.986 629.930 410.007 627.400 C 413.028 624.870 417.475 621.897 419.888 620.792 C 425.675 618.144 436.756 606.605 438.023 601.909 C 438.556 599.934 439.875 597.518 440.954 596.541 C 442.034 595.564 443.636 592.602 444.514 589.959 C 445.391 587.316 446.764 584.611 447.564 583.947 C 448.364 583.283 449.303 580.957 449.652 578.777 C 450.000 576.598 451.291 573.619 452.519 572.157 C 453.775 570.663 455.079 567.311 455.497 564.500 C 455.906 561.750 456.524 502.950 456.870 433.833 C 457.497 308.667 457.508 308.155 459.578 305.333 C 460.720 303.775 462.159 301.040 462.774 299.255 C 464.507 294.226 470.937 287.171 474.953 285.890 C 476.904 285.268 479.625 283.730 481.000 282.473 C 482.375 281.215 485.251 279.713 487.391 279.135 C 489.531 278.556 492.380 277.052 493.720 275.792 C 495.979 273.669 497.191 273.474 510.181 273.152 C 529.438 272.674 531.764 273.135 538.678 278.808 C 541.823 281.389 546.414 284.850 548.880 286.500 C 551.347 288.150 554.224 291.053 555.274 292.951 C 556.325 294.849 559.002 298.449 561.224 300.951 C 569.115 309.836 568.442 298.144 569.000 436.097 C 569.383 530.761 569.783 560.035 570.711 561.152 C 572.032 562.744 575.000 578.257 575.000 583.572 C 575.000 585.392 575.454 587.163 576.009 587.505 C 576.564 587.848 579.549 591.302 582.643 595.179 C 585.737 599.057 590.213 604.315 592.591 606.865 C 594.969 609.414 597.666 613.164 598.585 615.197 C 599.643 617.537 601.280 619.251 603.047 619.867 C 604.583 620.402 608.688 623.078 612.170 625.814 C 615.651 628.550 620.341 631.284 622.591 631.890 C 624.841 632.496 627.491 633.885 628.478 634.976 C 629.466 636.068 631.900 637.263 633.887 637.631 C 635.874 638.000 638.850 639.300 640.500 640.521 C 644.357 643.374 657.545 644.307 680.642 643.360 L 696.979 642.691 703.272 637.952 C 706.734 635.346 711.126 632.781 713.033 632.252 C 714.940 631.723 718.159 630.162 720.187 628.782 C 722.216 627.403 726.072 625.983 728.757 625.627 C 732.614 625.115 734.104 624.351 735.850 621.989 C 738.765 618.047 741.623 618.197 745.564 622.500 C 747.795 624.936 749.641 626.001 751.635 626.004 C 755.047 626.008 757.930 627.688 769.501 636.416 L 778.230 643.000 807.421 643.000 L 836.611 643.000 840.000 640.500 C 841.864 639.125 844.539 637.995 845.944 637.989 C 851.674 637.964 855.921 636.624 859.121 633.831 C 864.003 629.570 873.454 622.357 875.632 621.230 C 876.659 620.698 879.188 619.958 881.252 619.586 C 883.358 619.206 886.070 617.759 887.434 616.288 C 890.567 612.909 894.378 612.923 899.368 616.330 C 901.496 617.783 904.746 619.388 906.590 619.897 C 908.434 620.406 911.193 621.701 912.721 622.775 C 914.250 623.849 917.525 625.620 920.000 626.712 C 922.475 627.803 926.581 630.293 929.125 632.246 C 935.033 636.780 937.346 638.000 940.040 638.000 C 941.234 638.000 943.491 639.077 945.054 640.392 C 947.685 642.606 949.042 642.836 963.199 643.469 C 971.614 643.845 1054.589 644.006 1147.586 643.826 L 1316.672 643.500 1320.586 640.852 C 1323.153 639.115 1326.541 637.964 1330.433 637.507 C 1335.230 636.944 1337.240 636.096 1340.933 633.077 C 1350.807 625.006 1356.318 621.000 1357.549 621.000 C 1359.398 621.000 1368.631 612.900 1374.671 605.978 C 1378.316 601.802 1380.328 598.382 1381.488 594.393 C 1382.393 591.280 1385.220 585.565 1387.771 581.694 C 1391.399 576.186 1392.555 573.403 1393.087 568.897 C 1393.510 565.309 1394.658 561.886 1396.133 559.819 L 1398.500 556.500 1398.500 505.914 L 1398.500 455.327 1395.750 451.360 C 1394.238 449.178 1393.000 446.548 1393.000 445.515 C 1393.000 443.443 1384.421 425.378 1383.028 424.517 C 1382.547 424.220 1381.867 422.669 1381.515 421.070 C 1381.164 419.471 1376.868 413.347 1371.968 407.461 C 1367.067 401.575 1362.812 395.982 1362.510 395.031 C 1361.956 393.285 1358.025 391.000 1355.575 391.000 C 1354.844 391.000 1353.627 390.252 1352.872 389.338 C 1352.118 388.424 1349.250 386.599 1346.500 385.283 C 1343.750 383.966 1339.925 382.048 1338.000 381.020 C 1328.425 375.906 1323.311 373.942 1318.152 373.398 C 1314.761 373.039 1311.300 371.941 1309.500 370.650 L 1306.500 368.500 1195.500 368.000 C 1112.144 367.625 1083.830 367.201 1081.811 366.298 C 1076.840 364.076 1076.499 362.287 1076.511 338.500 C 1076.522 314.340 1076.383 315.002 1083.193 306.805 C 1085.339 304.223 1088.014 299.386 1089.139 296.056 C 1091.473 289.142 1094.449 286.272 1100.243 285.345 C 1102.412 284.998 1105.507 283.603 1107.121 282.245 C 1108.735 280.886 1111.874 279.366 1114.096 278.867 C 1116.318 278.368 1119.493 276.956 1121.151 275.730 L 1124.167 273.500 1226.430 273.000 C 1311.089 272.586 1328.978 272.264 1330.347 271.128 C 1331.778 269.939 1332.000 267.211 1332.000 250.812 C 1332.000 239.666 1331.574 231.072 1330.965 229.934 C 1329.951 228.040 1327.668 228.000 1220.600 228.000 C 1114.629 228.000 1111.195 228.058 1108.850 229.904 C 1107.519 230.951 1104.420 232.342 1101.965 232.995 C 1099.509 233.648 1096.150 234.987 1094.500 235.969 C 1092.850 236.952 1089.111 238.312 1086.192 238.992 C 1083.272 239.671 1079.672 241.243 1078.192 242.484 C 1076.711 243.726 1073.982 245.072 1072.128 245.477 C 1069.625 246.023 1065.581 249.380 1056.446 258.495 C 1046.363 268.556 1043.926 271.561 1042.970 275.111 C 1042.328 277.495 1040.792 280.646 1039.557 282.114 C 1037.844 284.150 1037.159 286.593 1036.666 292.417 C 1036.220 297.702 1035.248 301.504 1033.511 304.768 L 1031.000 309.484 1031.000 362.587 C 1031.000 412.592 1031.106 415.786 1032.813 417.331 C 1034.471 418.831 1045.932 418.994 1167.063 419.236 L 1299.500 419.500 1303.454 421.958 C 1305.778 423.402 1309.791 424.696 1313.190 425.097 C 1319.325 425.820 1322.214 427.588 1330.344 435.592 C 1340.854 445.939 1346.891 453.761 1346.965 457.124 C 1346.984 458.017 1348.238 460.942 1349.750 463.624 L 1352.500 468.500 1352.500 508.000 L 1352.500 547.500 1349.873 552.500 C 1348.428 555.250 1346.928 558.973 1346.538 560.774 C 1346.149 562.575 1344.809 565.275 1343.560 566.774 C 1342.311 568.273 1340.756 571.139 1340.103 573.142 C 1338.826 577.061 1330.726 585.000 1328.005 585.000 C 1327.118 585.000 1324.222 586.376 1321.571 588.057 C 1318.920 589.738 1314.416 591.546 1311.562 592.073 C 1308.339 592.669 1238.768 592.931 1127.937 592.766 L 949.500 592.500 944.836 590.344 C 942.270 589.158 939.615 587.133 938.935 585.844 C 938.255 584.555 935.346 580.945 932.469 577.822 C 925.330 570.072 921.166 563.674 920.015 558.686 C 919.415 556.088 919.034 492.486 919.010 391.000 C 918.979 261.282 918.709 226.983 917.707 225.000 L 916.443 222.500 895.860 222.230 C 877.629 221.991 875.119 222.151 873.889 223.634 C 872.721 225.041 872.420 251.085 872.000 387.404 L 871.500 549.500 869.361 553.119 C 868.184 555.110 866.704 559.154 866.071 562.106 C 864.630 568.826 863.000 571.343 859.025 572.990 C 857.120 573.779 855.141 575.763 853.970 578.059 C 851.098 583.689 845.172 588.818 839.500 590.582 C 832.732 592.688 808.294 593.635 800.855 592.081 C 797.750 591.432 793.999 589.911 792.521 588.701 C 787.081 584.248 775.759 572.412 774.154 569.500 C 772.639 566.752 772.458 552.145 772.000 395.903 C 771.582 253.321 771.275 225.035 770.128 223.653 C 768.926 222.206 766.001 222.002 746.628 222.015 C 734.457 222.024 723.953 222.379 723.283 222.804 "/></g>
<g fill="#000000FF" stroke="#000000FF">
<path d="M 1749.730 6.567 C 1748.503 8.047 1746.433 10.400 1745.130 11.795 C 1743.826 13.190 1742.178 15.719 1741.467 17.416 C 1740.756 19.112 1735.932 25.000 1730.746 30.500 C 1725.560 36.000 1720.558 42.075 1719.631 44.000 C 1718.704 45.925 1715.145 50.456 1711.723 54.070 C 1693.141 73.688 1684.196 83.726 1683.607 85.619 C 1683.245 86.784 1678.650 92.409 1673.396 98.119 C 1668.143 103.828 1662.975 110.178 1661.912 112.229 C 1660.850 114.281 1658.639 116.652 1657.000 117.500 C 1655.361 118.348 1653.152 120.719 1652.091 122.771 C 1651.030 124.822 1645.978 130.937 1640.864 136.360 C 1635.751 141.783 1630.877 147.729 1630.034 149.573 C 1629.190 151.417 1623.325 158.397 1617.000 165.084 C 1610.675 171.770 1604.738 178.875 1603.806 180.871 C 1602.874 182.867 1595.562 191.456 1587.556 199.957 C 1579.550 208.458 1573.000 215.953 1573.000 216.612 C 1573.000 218.227 1568.001 224.110 1554.124 238.829 C 1547.731 245.610 1541.909 252.538 1541.187 254.226 C 1540.465 255.913 1535.515 262.095 1530.187 267.962 C 1524.859 273.830 1519.761 280.016 1518.857 281.709 C 1517.954 283.402 1515.931 285.403 1514.361 286.156 C 1512.792 286.908 1510.831 288.932 1510.004 290.653 C 1508.417 293.957 1503.992 299.108 1491.883 311.749 C 1487.823 315.988 1483.767 321.041 1482.870 322.978 C 1481.974 324.915 1478.262 329.777 1474.620 333.783 C 1470.538 338.274 1468.000 341.938 1468.000 343.339 C 1468.000 344.589 1466.875 347.136 1465.500 349.000 C 1463.788 351.320 1463.000 353.685 1463.000 356.500 C 1463.000 359.315 1463.788 361.680 1465.500 364.000 C 1466.875 365.864 1467.997 368.539 1467.994 369.944 C 1467.987 373.494 1483.480 388.446 1488.130 389.376 C 1489.931 389.736 1492.325 390.868 1493.452 391.892 C 1494.578 392.916 1497.181 394.292 1499.236 394.950 C 1501.291 395.608 1503.253 396.600 1503.596 397.156 C 1503.939 397.711 1506.259 399.039 1508.751 400.108 C 1511.243 401.176 1515.356 403.786 1517.891 405.908 C 1520.426 408.030 1524.075 410.434 1526.000 411.250 C 1527.925 412.067 1532.504 415.503 1536.175 418.887 C 1539.846 422.271 1544.497 425.728 1546.512 426.569 C 1551.403 428.613 1591.611 468.825 1593.655 473.717 C 1594.477 475.683 1597.859 480.489 1601.172 484.396 C 1606.918 491.174 1609.256 494.901 1614.092 505.000 C 1615.277 507.475 1616.854 510.197 1617.597 511.050 C 1618.340 511.902 1619.646 514.580 1620.500 517.000 C 1621.354 519.420 1622.734 522.153 1623.567 523.074 C 1624.399 523.994 1625.450 527.083 1625.901 529.940 C 1626.353 532.796 1627.620 536.347 1628.716 537.830 C 1629.862 539.380 1631.015 543.075 1631.426 546.514 C 1631.819 549.806 1633.017 554.216 1634.088 556.314 C 1635.254 558.598 1636.446 564.016 1637.060 569.814 C 1638.348 581.979 1639.255 586.252 1640.648 586.716 C 1642.467 587.322 1642.974 583.208 1642.952 568.000 C 1642.935 555.744 1642.633 552.881 1641.000 549.500 C 1639.673 546.753 1639.056 543.308 1639.030 538.500 C 1639.002 533.227 1638.481 530.661 1636.921 528.102 C 1635.502 525.775 1634.535 521.675 1633.854 515.102 C 1633.197 508.765 1632.245 504.637 1631.055 502.960 C 1630.063 501.564 1628.911 498.864 1628.495 496.960 C 1628.080 495.057 1626.929 492.466 1625.939 491.203 C 1624.949 489.940 1623.826 487.482 1623.443 485.743 C 1623.061 484.003 1621.910 481.436 1620.886 480.040 C 1619.861 478.643 1618.563 475.025 1618.001 472.000 C 1617.438 468.975 1616.421 466.050 1615.739 465.500 C 1613.485 463.680 1609.207 457.431 1607.626 453.647 C 1606.770 451.597 1604.442 447.936 1602.454 445.509 C 1598.942 441.223 1596.231 436.735 1592.180 428.500 C 1591.098 426.300 1585.038 418.834 1578.714 411.909 C 1572.390 404.984 1566.530 398.009 1565.691 396.409 C 1563.505 392.237 1552.366 381.000 1550.416 381.000 C 1548.415 381.000 1533.694 366.859 1530.769 362.126 C 1529.055 359.353 1528.667 357.120 1528.667 350.045 L 1528.667 341.366 1533.083 335.566 C 1535.513 332.377 1538.130 328.582 1538.900 327.133 C 1540.567 323.999 1543.354 320.718 1555.400 307.702 C 1560.388 302.313 1565.230 296.338 1566.161 294.424 C 1567.092 292.510 1570.500 288.144 1573.734 284.722 C 1576.968 281.300 1583.526 274.374 1588.307 269.332 C 1593.088 264.290 1597.000 259.472 1597.000 258.625 C 1597.000 257.779 1600.472 253.216 1604.715 248.485 C 1608.958 243.754 1612.960 238.672 1613.607 237.192 C 1614.569 234.993 1626.927 220.947 1642.280 204.604 C 1643.776 203.011 1645.000 201.100 1645.000 200.357 C 1645.000 199.614 1650.655 192.817 1657.566 185.253 C 1664.477 177.689 1670.721 170.150 1671.440 168.500 C 1672.160 166.850 1679.218 158.570 1687.124 150.099 C 1695.031 141.629 1702.076 133.334 1702.779 131.665 C 1704.029 128.702 1706.755 125.547 1721.690 109.784 C 1725.710 105.540 1729.000 101.367 1729.000 100.510 C 1729.000 99.141 1744.124 81.860 1755.263 70.500 C 1757.420 68.300 1760.016 64.700 1761.032 62.500 C 1762.048 60.300 1764.487 56.757 1766.452 54.626 C 1768.417 52.495 1770.269 49.570 1770.568 48.126 C 1770.868 46.682 1771.585 43.627 1772.162 41.338 C 1773.407 36.397 1771.025 25.119 1767.898 21.143 C 1766.854 19.816 1766.000 18.150 1766.000 17.442 C 1766.000 15.460 1761.254 10.271 1756.365 6.907 L 1751.959 3.876 1749.730 6.567 "/></g>
<g fill="#6756FFFF" stroke="#6756FFFF">
<path d="M 1838.500 73.470 C 1830.721 76.949 1823.245 79.923 1820.707 80.550 C 1819.170 80.928 1817.145 82.352 1816.207 83.714 C 1815.268 85.075 1812.475 88.575 1810.000 91.492 C 1807.525 94.408 1802.800 100.018 1799.500 103.957 C 1796.200 107.897 1792.232 112.331 1790.682 113.810 C 1779.895 124.105 1774.583 129.969 1773.295 133.000 C 1772.478 134.925 1767.636 140.775 1762.537 146.000 C 1757.437 151.225 1752.268 157.468 1751.049 159.873 C 1749.831 162.279 1746.059 167.042 1742.667 170.459 C 1729.815 183.405 1720.000 194.301 1720.000 195.623 C 1720.000 197.771 1713.031 204.944 1708.891 207.056 C 1706.831 208.107 1704.824 209.980 1704.431 211.219 C 1703.288 214.818 1691.117 229.341 1679.472 241.000 C 1678.099 242.375 1674.961 245.525 1672.498 248.000 C 1670.036 250.475 1668.017 253.355 1668.011 254.399 C 1668.005 255.455 1663.379 261.006 1657.594 266.899 C 1651.871 272.730 1646.524 279.116 1645.712 281.090 C 1644.877 283.121 1638.211 290.860 1630.368 298.905 C 1622.740 306.728 1615.825 314.570 1615.000 316.331 C 1614.175 318.093 1612.547 320.877 1611.381 322.517 C 1610.216 324.158 1608.918 326.625 1608.496 328.000 C 1608.075 329.375 1607.116 331.388 1606.365 332.473 C 1605.501 333.721 1605.000 337.266 1605.000 342.130 C 1605.000 352.092 1607.330 356.795 1619.575 371.554 C 1624.619 377.634 1629.438 383.934 1630.283 385.554 C 1631.129 387.174 1633.361 389.318 1635.244 390.318 C 1637.313 391.416 1639.624 393.933 1641.084 396.677 C 1642.413 399.174 1644.370 402.856 1645.433 404.859 C 1646.496 406.862 1649.533 411.193 1652.183 414.486 C 1654.832 417.778 1657.000 421.231 1657.000 422.159 C 1657.000 423.087 1658.061 425.119 1659.358 426.673 C 1662.629 430.595 1666.882 438.853 1667.599 442.677 C 1667.929 444.433 1669.053 446.643 1670.099 447.590 C 1671.145 448.536 1672.000 449.852 1672.000 450.515 C 1672.000 451.177 1673.293 454.370 1674.873 457.610 C 1680.280 468.699 1683.185 477.493 1683.952 485.095 C 1684.477 490.311 1685.379 493.611 1686.821 495.600 C 1688.350 497.708 1689.098 500.686 1689.558 506.500 C 1690.023 512.370 1690.765 515.299 1692.346 517.500 C 1694.461 520.446 1694.500 521.189 1694.500 558.500 L 1694.500 596.500 1692.133 600.500 C 1690.745 602.846 1689.560 606.775 1689.269 610.000 C 1688.968 613.345 1688.060 616.284 1686.952 617.500 C 1684.804 619.859 1683.116 630.000 1684.871 630.000 C 1685.492 630.000 1686.000 629.388 1686.000 628.640 C 1686.000 627.891 1687.080 625.688 1688.400 623.743 C 1689.720 621.798 1691.115 619.147 1691.500 617.853 C 1691.885 616.559 1693.228 613.925 1694.484 612.000 C 1695.740 610.075 1697.045 606.304 1697.383 603.620 C 1697.721 600.936 1698.898 597.283 1699.999 595.502 C 1701.099 593.721 1702.000 591.441 1702.000 590.436 C 1702.000 589.430 1703.238 586.822 1704.750 584.639 L 1707.500 580.670 1707.500 521.919 L 1707.500 463.167 1705.126 459.956 C 1703.606 457.901 1702.504 454.645 1702.064 450.909 C 1701.685 447.699 1700.618 444.235 1699.691 443.212 C 1698.578 441.981 1697.708 438.397 1697.124 432.637 C 1696.540 426.871 1695.670 423.293 1694.554 422.060 C 1693.555 420.956 1692.358 416.751 1691.617 411.739 C 1690.765 405.978 1689.671 402.397 1688.183 400.506 C 1686.983 398.979 1686.000 396.727 1686.000 395.500 C 1686.000 394.273 1685.128 392.161 1684.062 390.806 C 1682.996 389.451 1681.805 387.028 1681.416 385.421 C 1681.027 383.814 1679.943 381.375 1679.007 380.000 C 1678.071 378.625 1676.781 375.954 1676.140 374.065 C 1675.499 372.176 1674.316 369.902 1673.511 369.012 C 1672.705 368.122 1671.516 363.826 1670.867 359.465 C 1668.537 343.800 1673.035 330.173 1684.554 318.000 C 1687.937 314.425 1691.680 309.587 1692.873 307.250 C 1694.092 304.860 1696.692 301.957 1698.813 300.618 C 1703.053 297.942 1707.160 293.340 1711.296 286.634 C 1712.833 284.140 1718.351 277.621 1723.557 272.145 C 1728.763 266.670 1733.670 260.640 1734.462 258.745 C 1735.254 256.850 1740.235 250.743 1745.531 245.172 C 1750.828 239.602 1755.462 233.938 1755.831 232.586 C 1756.199 231.234 1759.655 226.836 1763.511 222.814 C 1772.890 213.029 1781.211 203.137 1782.982 199.665 C 1783.778 198.105 1785.795 196.128 1787.465 195.271 C 1791.220 193.343 1796.902 187.085 1796.958 184.815 C 1796.981 183.888 1801.544 178.263 1807.097 172.315 C 1812.651 166.367 1817.836 159.911 1818.618 157.969 C 1819.401 156.027 1823.173 151.347 1827.001 147.570 C 1830.828 143.793 1834.258 139.757 1834.623 138.601 C 1835.525 135.746 1841.224 128.911 1848.653 121.777 C 1852.042 118.523 1855.392 114.429 1856.097 112.680 C 1858.056 107.816 1863.770 101.276 1867.062 100.128 C 1869.890 99.142 1871.180 97.116 1872.612 91.409 C 1873.143 89.293 1872.257 87.932 1866.870 82.589 C 1861.057 76.824 1860.027 76.210 1855.094 75.580 C 1852.120 75.200 1848.430 74.239 1846.893 73.445 C 1843.544 71.713 1842.421 71.716 1838.500 73.470 "/></g>
<g fill="#6756FFFF" stroke="#6756FFFF">
<path d="M 279.392 702.979 C 276.477 704.156 276.000 707.528 276.000 726.934 C 276.000 739.754 276.328 744.067 277.418 745.559 C 278.726 747.351 280.401 747.525 299.168 747.821 C 323.497 748.206 326.607 747.612 327.586 742.394 C 327.952 740.442 328.052 731.171 327.808 721.792 C 327.412 706.579 327.162 704.592 325.491 703.370 C 324.038 702.308 318.889 702.014 302.559 702.063 C 290.976 702.098 280.551 702.510 279.392 702.979 "/></g>
<g fill="#6756FFFF" stroke="#6756FFFF">
<path d="M 917.571 125.571 C 916.253 126.890 916.000 130.203 916.000 146.137 C 916.000 157.318 916.426 165.927 917.035 167.066 C 918.013 168.893 919.357 169.000 941.335 169.000 C 958.097 169.000 964.935 168.665 965.800 167.800 C 966.652 166.948 967.000 160.883 967.000 146.871 C 967.000 130.270 966.751 126.894 965.429 125.571 C 963.079 123.222 919.921 123.222 917.571 125.571 "/></g>
<g fill="#6756FFFF" stroke="#6756FFFF">
<path d="M 723.750 703.080 C 722.172 703.999 722.000 706.150 722.000 725.011 L 722.000 745.923 726.135 747.036 C 732.082 748.638 768.461 747.945 770.202 746.197 C 771.179 745.215 771.500 739.946 771.500 724.865 C 771.500 706.194 771.369 704.741 769.559 703.419 C 768.025 702.298 763.199 702.006 746.559 702.030 C 734.124 702.048 724.783 702.478 723.750 703.080 "/></g>
<g fill="#6756FFFF" stroke="#6756FFFF">
<path d="M 175.223 703.557 C 173.053 705.076 173.000 705.581 173.015 724.807 C 173.024 735.638 173.458 745.175 173.980 746.000 C 175.320 748.117 213.813 748.233 216.347 746.128 C 218.766 744.119 218.839 705.982 216.429 703.571 C 214.113 701.256 178.526 701.243 175.223 703.557 "/></g>
<g fill="#6756FFFF" stroke="#6756FFFF">
<path d="M 820.000 126.000 C 818.144 127.856 818.000 129.333 818.000 146.566 C 818.000 157.451 818.428 165.932 819.035 167.066 C 820.007 168.881 821.324 169.000 840.413 169.000 C 858.110 169.000 860.934 168.785 862.128 167.347 C 863.187 166.071 863.500 161.264 863.500 146.268 C 863.500 128.191 863.365 126.742 861.559 125.420 C 860.045 124.312 855.480 124.000 840.809 124.000 C 823.333 124.000 821.858 124.142 820.000 126.000 "/></g>
</svg>